# xmcd
#
# Track frame offsets:
#	150
#	14849
#	24892
#	42421
#	64894
#	78114
#	89528
#	101285
#	111965
#	125719
#	138597
#
# Disc length: 2032 seconds
#
# Revision: 1
# Processed by: cddbd v1.5.2PL0 Copyright (c) Steve Scherf et al.
# Submitted via: audiograbber 1.83.01
#
DISCID=9207ee0b
DTITLE=Various Artist - First Nation Gospel Jamboree
DYEAR=2002
DGENRE=Gospel
TTITLE0=Art Shorting - Amazing Grace
TTITLE1=Daniel Sinclair - Saulteaux Indian Song
TTITLE2=Bill Hamelin - A Closer Walk
TTITLE3=William Bushey - Come Take Me By The Hand
TTITLE4=John McDonald - All Over The World
TTITLE5=Art Shorting - Tell Me His Name Again
TTITLE6=William Bushy - I'm Going Home
TTITLE7=Art Shorting - God Took Away All My Yesterdays
TTITLE8=Daniel Sinclair - He Has Risen
TTITLE9=Bill Hamelin - I Saw The Light
TTITLE10=John McDonald - Choir Of Angels
EXTD=
EXTT0=
EXTT1=
EXTT2=
EXTT3=
EXTT4=
EXTT5=
EXTT6=
EXTT7=
EXTT8=
EXTT9=
EXTT10=
PLAYORDER=
